# xmcd CD database file
#
# Track frame offsets:
#	150
#	24665
#	36225
#	59522
#	75275
#	87442
#	126232
#	148272
#	165552
#	184530
#	208477
#	233320
#	248437
#	265425
#	286015
#	298012
#
# Disc length: 4200 seconds
#
# Revision: 11
# Processed by: cddbd v1.5.2PL0 Copyright (c) Steve Scherf et al.
# Submitted via: CDex 1.77
#
DISCID=e2106610
DTITLE=B.B. King - His Definitive Greatest Hits
DYEAR=1999
DGENRE=Blues
TTITLE0=The Thrill Is Gone
TTITLE1=Paying The Cost To Be The Boss
TTITLE2=Don't Answer The Door (Parts One And Two)
TTITLE3=I Like To Live The Love
TTITLE4=How Blue Can You Get
TTITLE5=Why I Sing The Blues
TTITLE6=Chains And Things
TTITLE7=To Know You Is To Love You
TTITLE8=When Love Comes To Town
TTITLE9=Playin' With My Friends
TTITLE10=Never Make Your Move Too Soon
TTITLE11=Better Not Look Down
TTITLE12=There Must Be A Better World Somewhere
TTITLE13=Hummingbird
TTITLE14=Everyday I Have The Blues (Live)
TTITLE15=Sweet Little Angel (Live)
EXTD=YEAR: 1999
EXTT0=
EXTT1=
EXTT2=
EXTT3=
EXTT4=
EXTT5=
EXTT6=
EXTT7=
EXTT8=
EXTT9=
EXTT10=
EXTT11=
EXTT12=
EXTT13=
EXTT14=
EXTT15=
PLAYORDER=
